<svg xmlns="http://www.w3.org/2000/svg" version="1.0" width="415.000000pt" height="412.000000pt" viewBox="0 0 415.000000 412.000000" preserveAspectRatio="xMidYMid meet">

<g transform="translate(0.000000,412.000000) scale(0.100000,-0.100000)" fill="#ffffff" stroke="none">
<path d="M1965 3640 c-55 -27 -167 -82 -250 -121 -682 -329 -1089 -534 -1093 -551 -2 -9 60 -44 183 -103 102 -49 185 -93 185 -98 0 -5 -20 -50 -44 -101 -94 -197 -136 -340 -157 -536 -6 -63 -20 -137 -31 -165 -23 -60 -48 -193 -48 -256 0 -25 6 -89 14 -141 24 -161 70 -273 151 -376 74 -94 134 -130 250 -152 28 -5 72 -14 99 -20 28 -5 53 -7 57 -3 4 5 -19 60 -50 124 -63 126 -79 168 -115 299 -41 143 -51 226 -51 405 0 159 5 204 37 335 22 92 22 100 0 100 -31 0 -119 -37 -156 -65 -41 -32 -46 -31 -46 3 0 78 77 302 151 442 72 134 129 210 249 331 254 257 550 366 898 331 230 -23 428 -112 625 -279 80 -69 197 -205 255 -298 78 -125 150 -306 187 -469 22 -96 16 -106 -43 -63 -73 53 -172 85 -172 56 0 -5 6 -31 14 -57 36 -118 48 -237 44 -404 -3 -90 -10 -185 -16 -213 -24 -111 -33 -152 -42 -185 -14 -56 -67 -187 -116 -288 -44 -91 -48 -117 -19 -105 8 3 22 2 30 -1 22 -8 7 -35 -72 -123 -113 -128 -280 -236 -421 -274 -62 -17 -92 -16 -92 1 0 5 -15 25 -34 44 l-33 36 -203 0 -202 0 -33 -33 c-38 -38 -59 -104 -49 -150 11 -51 50 -104 85 -116 19 -6 102 -11 201 -11 192 0 222 8 257 63 17 28 33 39 75 51 30 9 58 16 63 16 12 0 110 42 163 69 151 79 331 249 413 392 32 55 50 71 97 89 93 35 216 207 258 362 56 201 54 369 -5 538 -11 30 -25 107 -32 170 -22 208 -65 354 -157 537 -23 45 -38 86 -35 92 4 6 63 38 132 72 177 86 233 116 237 128 2 6 -160 91 -360 189 -338 167 -465 229 -902 442 -93 45 -183 84 -200 86 -22 3 -59 -10 -131 -46z"/>
<path d="M2000 3223 c-231 -20 -445 -122 -634 -302 -71 -68 -186 -213 -186 -235 0 -7 98 -59 218 -116 280 -134 315 -152 320 -168 4 -14 -6 -13 -173 14 -50 8 -124 16 -165 17 l-74 2 -28 -50 c-28 -51 -54 -124 -90 -250 -15 -54 -21 -112 -25 -255 -5 -197 7 -294 58 -463 55 -181 172 -390 285 -513 69 -73 125 -85 168 -33 41 49 36 100 -25 236 -76 173 -119 313 -126 414 -6 85 -5 87 21 104 28 18 43 17 136 -9 144 -42 221 -4 295 143 l27 54 -24 23 c-12 12 -113 68 -223 124 -209 107 -225 116 -225 132 0 12 24 8 130 -21 41 -11 95 -25 120 -32 25 -6 72 -20 105 -30 173 -51 197 -54 266 -35 259 74 488 130 496 122 11 -11 -6 -22 -191 -116 -205 -104 -276 -148 -276 -170 1 -8 16 -44 34 -80 58 -115 149 -153 276 -115 118 35 151 28 165 -35 15 -67 -51 -298 -132 -470 -39 -80 -46 -105 -47 -158 -1 -58 2 -66 27 -88 64 -55 132 -17 247 138 58 80 164 291 194 390 56 185 68 262 68 448 1 146 -3 190 -21 265 -27 114 -53 189 -93 272 l-32 66 -76 -7 c-41 -4 -111 -13 -155 -21 -97 -17 -179 -20 -170 -4 4 6 109 60 234 120 279 136 292 142 297 151 7 12 -112 162 -187 234 -89 86 -159 137 -259 191 -83 45 -215 93 -254 93 -13 0 -35 4 -48 9 -28 10 -187 19 -248 14z"/>
</g>
</svg>