<?xml version="1.0" standalone="no"?>
<!DOCTYPE svg PUBLIC "-//W3C//DTD SVG 20010904//EN"
 "http://www.w3.org/TR/2001/REC-SVG-20010904/DTD/svg10.dtd">
<svg version="1.0" xmlns="http://www.w3.org/2000/svg"
 width="392.000000pt" height="295.000000pt" viewBox="0 0 392.000000 295.000000"
 preserveAspectRatio="xMidYMid meet">

<g transform="translate(0.000000,295.000000) scale(0.100000,-0.100000)"
fill="#007FFF" stroke="none">
<path d="M1780 2554 c-244 -28 -454 -129 -617 -295 -81 -83 -118 -133 -101
-137 7 -2 23 -8 36 -15 19 -9 25 -7 39 14 32 47 149 156 212 199 150 100 298
149 479 157 188 9 326 -21 480 -102 68 -35 95 -38 106 -9 9 24 -3 38 -65 72
-72 40 -176 77 -274 98 -72 15 -233 25 -295 18z"/>
<path d="M2792 2318 c-5 -7 -18 -62 -28 -121 l-18 -108 -48 -29 c-27 -17 -52
-30 -57 -30 -5 0 0 37 10 81 20 86 16 109 -21 109 -28 0 -36 -18 -59 -135 -13
-60 -28 -114 -34 -118 -27 -18 -89 -48 -93 -45 -2 3 5 36 16 74 25 87 25 101
-1 115 -31 16 -44 -2 -69 -96 -12 -44 -25 -96 -31 -116 -8 -31 -20 -43 -77
-76 -103 -61 -202 -118 -257 -148 -150 -83 -186 -108 -183 -128 8 -53 26 -46
284 101 136 78 255 142 265 142 10 0 58 -11 107 -24 93 -25 122 -22 122 13 0
26 -17 36 -77 51 -29 6 -53 15 -53 19 0 4 22 20 48 34 l48 26 109 -24 c114
-24 135 -22 135 15 0 24 -18 36 -65 44 -91 16 -95 23 -26 56 l49 23 95 -17
c116 -21 151 -19 155 10 4 31 -13 40 -120 59 -58 10 -98 22 -98 28 1 7 9 53
19 102 20 95 15 125 -18 125 -10 0 -23 -6 -29 -12z"/>
<path d="M1710 2214 c-167 -44 -313 -151 -406 -295 -57 -87 -81 -151 -100
-261 -41 -239 53 -482 248 -641 169 -138 435 -185 636 -114 261 92 441 316
467 583 6 59 4 74 -10 87 -36 36 -54 14 -65 -79 -28 -248 -185 -444 -417 -522
-99 -33 -253 -36 -348 -8 -169 50 -312 169 -383 317 -48 100 -62 162 -62 272
0 166 61 311 179 427 88 86 166 132 277 160 135 35 269 22 409 -39 67 -28 71
-29 88 -12 10 9 15 24 12 33 -8 20 -121 72 -201 92 -78 20 -249 20 -324 0z"/>
<path d="M1006 2054 c-18 -18 -17 -12 -19 -88 -2 -54 -5 -60 -39 -90 -54 -45
-73 -133 -72 -331 1 -166 17 -252 74 -387 59 -143 201 -328 310 -403 22 -15
40 -31 40 -35 0 -3 -43 -71 -95 -150 -52 -79 -95 -146 -95 -150 0 -4 9 -15 20
-25 27 -24 34 -18 142 144 50 75 92 137 93 139 2 2 32 -11 66 -29 141 -71 276
-100 459 -100 151 0 271 27 407 91 83 39 89 40 100 23 162 -245 179 -268 202
-271 21 -3 40 11 41 30 0 3 -44 72 -97 153 l-97 147 29 21 c58 39 192 184 243
262 92 140 147 303 158 470 6 78 4 92 -10 105 -34 27 -50 1 -62 -101 -21 -181
-62 -301 -149 -434 -73 -110 -122 -164 -217 -235 -182 -137 -379 -198 -608
-187 -195 9 -362 69 -517 186 -200 151 -320 355 -359 614 -25 164 3 368 70
507 15 31 22 56 16 58 -19 7 -11 42 10 42 13 0 20 7 20 20 0 25 -41 28 -64 4z"/>
<path d="M1787 1900 c-95 -24 -178 -90 -228 -182 -32 -60 -34 -68 -34 -163 0
-89 3 -106 28 -157 38 -78 93 -133 169 -168 187 -87 390 -13 479 175 34 70 41
168 13 179 -30 12 -51 -11 -56 -61 -10 -97 -73 -186 -165 -232 -31 -16 -61
-21 -115 -21 -119 0 -204 53 -260 160 -32 62 -32 175 0 240 29 60 82 113 139
141 63 30 169 31 234 2 38 -17 48 -18 63 -7 51 37 -37 93 -156 99 -40 3 -90 0
-111 -5z"/>
</g>
</svg>
