<?xml version="1.0" standalone="no"?>
<!DOCTYPE svg PUBLIC "-//W3C//DTD SVG 20010904//EN"
 "http://www.w3.org/TR/2001/REC-SVG-20010904/DTD/svg10.dtd">
<svg version="1.0" xmlns="http://www.w3.org/2000/svg"
 width="351.000000pt" height="251.000000pt" viewBox="0 0 351.000000 251.000000"
 preserveAspectRatio="xMidYMid meet">

<g transform="translate(0.000000,251.000000) scale(0.100000,-0.100000)"
fill="#007FFF" stroke="none">
<path d="M1538 2089 c-172 -15 -373 -71 -513 -142 -261 -133 -509 -374 -635
-618 -28 -55 -25 -66 57 -197 135 -215 345 -405 573 -518 169 -84 433 -154
531 -141 21 3 42 1 45 -4 10 -18 128 -10 169 11 48 25 71 25 84 3 11 -21 17
-10 24 46 l4 33 -41 -8 c-23 -5 -106 -9 -186 -8 -125 0 -154 4 -210 23 -226
81 -402 250 -475 460 -27 76 -50 95 -76 62 -17 -21 -17 -24 2 -78 40 -117 152
-285 233 -348 81 -65 -85 14 -222 104 -159 105 -308 261 -417 439 l-38 63 22
47 c67 136 222 314 377 430 89 67 289 180 300 170 2 -2 -23 -30 -55 -61 -75
-71 -151 -184 -185 -274 -53 -138 -73 -306 -40 -334 32 -26 48 1 61 105 19
157 65 269 155 385 93 118 243 218 388 258 91 25 310 24 395 -1 209 -64 370
-201 465 -396 22 -47 47 -96 53 -110 15 -29 45 -33 60 -8 8 12 4 33 -16 85
-41 105 -95 188 -176 275 -40 43 -70 78 -67 78 15 0 176 -86 231 -123 171
-115 353 -307 426 -448 11 -24 35 -47 65 -63 55 -30 54 -30 54 -11 0 8 -6 15
-14 15 -19 0 -58 64 -60 99 -2 51 -121 208 -241 318 -203 187 -444 311 -705
362 -55 11 -271 32 -300 30 -8 -1 -54 -5 -102 -10z"/>
<path d="M1562 1837 c-6 -7 -14 -37 -18 -67 -8 -65 -15 -77 -55 -85 -25 -6
-41 0 -85 29 -29 20 -57 36 -62 36 -11 0 -142 -134 -142 -146 0 -6 18 -34 39
-63 36 -48 38 -54 27 -84 -14 -41 -19 -44 -83 -52 -75 -9 -83 -20 -83 -118 0
-45 4 -87 8 -94 4 -7 38 -19 75 -27 38 -7 69 -15 71 -17 1 -2 7 -17 14 -32 11
-27 9 -33 -24 -79 -19 -28 -37 -58 -39 -68 -4 -19 113 -142 138 -146 8 -1 37
15 65 36 47 36 53 38 86 28 30 -10 37 -17 42 -47 12 -74 25 -109 40 -115 23
-9 167 -7 182 2 7 5 18 39 25 76 12 63 15 69 47 82 33 14 35 14 91 -26 46 -32
62 -39 76 -31 34 19 123 119 123 138 0 11 -16 41 -36 67 -35 46 -35 48 -21 84
14 34 18 37 77 48 81 14 90 27 90 124 0 93 -10 105 -94 117 -55 8 -59 10 -73
46 -15 36 -14 39 4 60 11 12 30 39 42 59 l23 38 -59 61 c-82 86 -85 87 -146
45 -56 -38 -72 -42 -110 -25 -19 8 -25 23 -34 76 -7 36 -18 70 -25 74 -22 14
-184 11 -196 -4z m129 -67 c12 0 19 -13 24 -47 7 -54 29 -93 50 -93 8 0 34
-10 58 -21 l44 -22 58 38 57 38 29 -30 30 -29 -36 -52 c-19 -28 -35 -55 -35
-59 0 -5 11 -35 24 -68 26 -63 51 -85 98 -85 49 0 58 -9 58 -55 0 -43 0 -43
-42 -50 -62 -9 -98 -25 -98 -44 -1 -9 -9 -34 -20 -56 -26 -54 -25 -57 16 -115
l35 -49 -31 -31 -31 -30 -50 35 c-28 19 -54 35 -58 35 -8 0 -113 -43 -128 -53
-7 -4 -17 -34 -24 -67 l-12 -60 -43 0 c-47 0 -45 -3 -59 83 -6 36 -11 40 -72
68 -35 16 -70 29 -77 29 -7 0 -33 -16 -59 -36 l-46 -36 -33 30 -32 31 38 56
39 55 -30 68 -29 67 -65 15 -64 16 -3 41 -3 41 62 11 c65 11 89 24 89 49 0 8
10 34 22 58 l21 43 -37 57 -38 57 30 29 29 30 55 -36 54 -36 70 28 69 28 11
56 c14 70 21 81 48 74 11 -3 28 -6 37 -6z"/>
<path d="M1552 1508 c-85 -41 -132 -123 -132 -229 1 -164 157 -274 322 -229
57 16 133 91 154 152 19 59 15 147 -10 195 -22 44 -74 93 -121 114 -56 26
-157 24 -213 -3z m181 -62 c77 -33 122 -127 99 -205 -37 -123 -185 -170 -279
-88 -150 132 -3 371 180 293z"/>
<path d="M2416 1298 c-2 -7 -8 -49 -14 -93 -6 -44 -13 -87 -16 -95 -3 -8 3
-26 14 -40 l19 -25 20 20 c22 22 44 137 39 202 -3 33 -7 38 -31 41 -16 2 -29
-2 -31 -10z"/>
<path d="M2843 1211 c-21 -37 -22 -71 -3 -71 11 0 6 -28 -8 -42 -9 -9 -16 -7
-31 6 -18 16 -20 16 -39 -16 -11 -18 -25 -46 -31 -61 -6 -15 -17 -27 -24 -27
-8 0 -22 -9 -32 -20 -18 -20 -18 -21 6 -46 l24 -26 47 53 c45 49 178 238 178
252 0 6 -53 37 -62 37 -2 0 -13 -18 -25 -39z"/>
<path d="M2353 1001 c-9 -25 -7 -32 14 -56 14 -15 29 -23 33 -18 10 11 25 60
15 51 -12 -11 -35 11 -35 33 0 28 -14 23 -27 -10z"/>
<path d="M2590 897 c-69 -63 -148 -127 -158 -127 -6 0 -21 -14 -34 -30 -16
-21 -39 -34 -72 -43 -45 -11 -50 -16 -65 -57 -23 -63 -87 -90 -157 -66 -19 7
-21 5 -17 -18 3 -14 9 -26 13 -26 17 0 145 52 218 89 98 49 203 120 288 196
54 48 64 60 52 69 -8 6 -19 19 -24 28 -8 15 -13 14 -44 -15z"/>
<path d="M2310 893 c0 -26 -4 -33 -19 -33 -10 0 -22 -7 -25 -16 -8 -21 -9 -21
17 -18 12 1 32 3 44 3 39 2 44 32 12 66 l-29 30 0 -32z"/>
<path d="M2216 781 c-3 -4 6 -19 20 -32 l25 -23 26 26 26 27 -27 -3 c-14 -2
-29 1 -32 5 -7 11 -31 12 -38 0z"/>
<path d="M2135 704 c-42 -35 -46 -58 -17 -81 25 -18 57 -16 83 8 l24 20 -25
-7 -25 -6 21 23 c27 30 27 55 0 67 -18 8 -29 3 -61 -24z"/>
<path d="M2035 630 c3 -5 10 -10 16 -10 5 0 9 5 9 10 0 6 -7 10 -16 10 -8 0
-12 -4 -9 -10z"/>
<path d="M1939 577 c-20 -15 -31 -58 -20 -76 14 -22 131 5 131 30 0 46 -72 76
-111 46z"/>
</g>
</svg>
